<mxfile host="app.diagrams.net" modified="2022-03-24T23:03:25.443Z" agent="5.0 (Windows NT 10.0; Win64; x64) AppleWebKit/537.36 (KHTML, like Gecko) Chrome/99.0.4844.82 Safari/537.36" etag="3OvqZNZoWOZxadmAnh7H" version="17.2.1" type="github">
  <diagram id="uMxjbzuf3qL6tls2jOyg" name="Page-1">
    <mxGraphModel dx="1038" dy="529" grid="1" gridSize="10" guides="1" tooltips="1" connect="1" arrows="1" fold="1" page="1" pageScale="1" pageWidth="827" pageHeight="1169" math="0" shadow="0">
      <root>
        <mxCell id="0" />
        <mxCell id="1" parent="0" />
        <mxCell id="yyR396pkZPAoqzIFuEps-18" style="edgeStyle=none;rounded=0;orthogonalLoop=1;jettySize=auto;html=1;entryX=0;entryY=0;entryDx=240;entryDy=95;entryPerimeter=0;endArrow=none;endFill=0;exitX=0;exitY=0;exitDx=0;exitDy=75;exitPerimeter=0;" parent="1" source="yyR396pkZPAoqzIFuEps-7" target="yyR396pkZPAoqzIFuEps-1" edge="1">
          <mxGeometry relative="1" as="geometry" />
        </mxCell>
        <mxCell id="yyR396pkZPAoqzIFuEps-15" style="rounded=0;orthogonalLoop=1;jettySize=auto;html=1;exitX=0;exitY=0;exitDx=60;exitDy=0;exitPerimeter=0;entryX=0;entryY=0;entryDx=130;entryDy=170;entryPerimeter=0;endArrow=none;endFill=0;" parent="1" source="yyR396pkZPAoqzIFuEps-5" target="yyR396pkZPAoqzIFuEps-1" edge="1">
          <mxGeometry relative="1" as="geometry" />
        </mxCell>
        <mxCell id="yyR396pkZPAoqzIFuEps-16" style="edgeStyle=none;rounded=0;orthogonalLoop=1;jettySize=auto;html=1;exitX=0;exitY=0;exitDx=120;exitDy=0;exitPerimeter=0;entryX=0;entryY=0;entryDx=20;entryDy=170;entryPerimeter=0;endArrow=none;endFill=0;" parent="1" source="yyR396pkZPAoqzIFuEps-5" target="yyR396pkZPAoqzIFuEps-7" edge="1">
          <mxGeometry relative="1" as="geometry" />
        </mxCell>
        <mxCell id="yyR396pkZPAoqzIFuEps-17" style="edgeStyle=none;rounded=0;orthogonalLoop=1;jettySize=auto;html=1;exitX=0;exitY=0;exitDx=60;exitDy=0;exitPerimeter=0;entryX=0;entryY=0;entryDx=100;entryDy=170;entryPerimeter=0;endArrow=none;endFill=0;" parent="1" source="yyR396pkZPAoqzIFuEps-12" target="yyR396pkZPAoqzIFuEps-7" edge="1">
          <mxGeometry relative="1" as="geometry" />
        </mxCell>
        <mxCell id="yyR396pkZPAoqzIFuEps-19" value="&amp;lt;&amp;lt;Internet&amp;gt;&amp;gt;&lt;br&gt;HTTP" style="text;html=1;align=center;verticalAlign=middle;resizable=0;points=[];autosize=1;strokeColor=none;fillColor=none;" parent="1" vertex="1">
          <mxGeometry x="360" y="125" width="80" height="30" as="geometry" />
        </mxCell>
        <mxCell id="yyR396pkZPAoqzIFuEps-20" value="&amp;lt;&amp;lt;Internet&amp;gt;&amp;gt;&lt;br&gt;HTTP" style="text;html=1;align=center;verticalAlign=middle;resizable=0;points=[];autosize=1;strokeColor=none;fillColor=none;" parent="1" vertex="1">
          <mxGeometry x="320" y="290" width="80" height="30" as="geometry" />
        </mxCell>
        <mxCell id="yyR396pkZPAoqzIFuEps-21" value="&amp;lt;&amp;lt;Internet&amp;gt;&amp;gt;&lt;br&gt;HTTP" style="text;html=1;align=center;verticalAlign=middle;resizable=0;points=[];autosize=1;strokeColor=none;fillColor=none;" parent="1" vertex="1">
          <mxGeometry x="360" y="400" width="80" height="30" as="geometry" />
        </mxCell>
        <mxCell id="yyR396pkZPAoqzIFuEps-22" value="&amp;lt;&amp;lt;Internet&amp;gt;&amp;gt;&lt;br&gt;HTTP" style="text;html=1;align=center;verticalAlign=middle;resizable=0;points=[];autosize=1;strokeColor=none;fillColor=none;" parent="1" vertex="1">
          <mxGeometry x="540" y="300" width="80" height="30" as="geometry" />
        </mxCell>
        <mxCell id="s6RQTDbrtwNKBfFEB754-12" value="" style="group" vertex="1" connectable="0" parent="1">
          <mxGeometry x="440" y="335" width="170" height="180" as="geometry" />
        </mxCell>
        <mxCell id="yyR396pkZPAoqzIFuEps-7" value="" style="verticalAlign=top;align=left;spacingTop=8;spacingLeft=2;spacingRight=12;shape=cube;size=20;direction=south;fontStyle=4;html=1;fillColor=#E5EEFC;strokeColor=#0A0000;gradientColor=#7ea6e0;gradientDirection=east;shadow=1;" parent="s6RQTDbrtwNKBfFEB754-12" vertex="1">
          <mxGeometry width="170" height="180" as="geometry" />
        </mxCell>
        <mxCell id="yyR396pkZPAoqzIFuEps-8" value="&lt;b&gt;Web Server&lt;/b&gt;" style="text;html=1;align=center;verticalAlign=middle;resizable=0;points=[];autosize=1;strokeColor=none;fillColor=none;" parent="s6RQTDbrtwNKBfFEB754-12" vertex="1">
          <mxGeometry x="45" y="25" width="80" height="20" as="geometry" />
        </mxCell>
        <mxCell id="s6RQTDbrtwNKBfFEB754-10" value="" style="group" vertex="1" connectable="0" parent="s6RQTDbrtwNKBfFEB754-12">
          <mxGeometry x="20" y="55" width="111" height="70" as="geometry" />
        </mxCell>
        <mxCell id="yyR396pkZPAoqzIFuEps-4" value="«CSCI»&lt;br&gt;&lt;br&gt;Session Server&lt;br&gt;SW" style="html=1;shadow=1;strokeColor=#82b366;fillColor=#d5e8d4;gradientColor=#97d077;gradientDirection=south;" parent="s6RQTDbrtwNKBfFEB754-10" vertex="1">
          <mxGeometry width="110" height="70" as="geometry" />
        </mxCell>
        <mxCell id="s6RQTDbrtwNKBfFEB754-9" value="" style="shape=image;html=1;verticalAlign=top;verticalLabelPosition=bottom;labelBackgroundColor=#ffffff;imageAspect=0;aspect=fixed;image=https://cdn3.iconfinder.com/data/icons/user-interface-169/32/dicument-128.png;strokeColor=#009900;strokeWidth=1;fillColor=#0A0000;imageBackground=none;imageBorder=none;" vertex="1" parent="s6RQTDbrtwNKBfFEB754-10">
          <mxGeometry x="91" y="2" width="20" height="20" as="geometry" />
        </mxCell>
        <mxCell id="s6RQTDbrtwNKBfFEB754-13" value="" style="group" vertex="1" connectable="0" parent="1">
          <mxGeometry x="180" y="375" width="170" height="140" as="geometry" />
        </mxCell>
        <mxCell id="yyR396pkZPAoqzIFuEps-12" value="" style="verticalAlign=top;align=left;spacingTop=8;spacingLeft=2;spacingRight=12;shape=cube;size=20;direction=south;fontStyle=4;html=1;fillColor=#E5EEFC;strokeColor=#0A0000;gradientColor=#7ea6e0;gradientDirection=east;shadow=1;" parent="s6RQTDbrtwNKBfFEB754-13" vertex="1">
          <mxGeometry width="170" height="140" as="geometry" />
        </mxCell>
        <mxCell id="yyR396pkZPAoqzIFuEps-13" value="&lt;b&gt;User PC&amp;nbsp;&lt;/b&gt;" style="text;html=1;align=center;verticalAlign=middle;resizable=0;points=[];autosize=1;strokeColor=none;fillColor=none;" parent="s6RQTDbrtwNKBfFEB754-13" vertex="1">
          <mxGeometry x="40" y="30" width="70" height="20" as="geometry" />
        </mxCell>
        <mxCell id="yyR396pkZPAoqzIFuEps-14" value="«CSCI»&lt;br&gt;&lt;br&gt;Session Web App" style="html=1;shadow=1;strokeColor=#82b366;fillColor=#d5e8d4;gradientColor=#97d077;gradientDirection=south;" parent="s6RQTDbrtwNKBfFEB754-13" vertex="1">
          <mxGeometry x="10" y="65" width="130" height="50" as="geometry" />
        </mxCell>
        <mxCell id="s6RQTDbrtwNKBfFEB754-8" value="" style="shape=image;html=1;verticalAlign=top;verticalLabelPosition=bottom;labelBackgroundColor=#ffffff;imageAspect=0;aspect=fixed;image=https://cdn3.iconfinder.com/data/icons/user-interface-169/32/dicument-128.png;strokeColor=#009900;strokeWidth=1;fillColor=#0A0000;imageBackground=none;imageBorder=none;" vertex="1" parent="s6RQTDbrtwNKBfFEB754-13">
          <mxGeometry x="120" y="66" width="20" height="20" as="geometry" />
        </mxCell>
        <mxCell id="s6RQTDbrtwNKBfFEB754-14" value="" style="group" vertex="1" connectable="0" parent="1">
          <mxGeometry x="180" y="110" width="170" height="140" as="geometry" />
        </mxCell>
        <mxCell id="yyR396pkZPAoqzIFuEps-5" value="" style="verticalAlign=top;align=left;spacingTop=8;spacingLeft=2;spacingRight=12;shape=cube;size=20;direction=south;fontStyle=4;html=1;fillColor=#E5EEFC;strokeColor=#0A0000;gradientColor=#7ea6e0;gradientDirection=east;shadow=1;" parent="s6RQTDbrtwNKBfFEB754-14" vertex="1">
          <mxGeometry width="170" height="140" as="geometry" />
        </mxCell>
        <mxCell id="yyR396pkZPAoqzIFuEps-6" value="&lt;b&gt;Admin Support PC WS&amp;nbsp;&lt;/b&gt;" style="text;html=1;align=center;verticalAlign=middle;resizable=0;points=[];autosize=1;strokeColor=none;fillColor=none;" parent="s6RQTDbrtwNKBfFEB754-14" vertex="1">
          <mxGeometry y="30" width="150" height="20" as="geometry" />
        </mxCell>
        <mxCell id="s6RQTDbrtwNKBfFEB754-11" value="" style="group" vertex="1" connectable="0" parent="s6RQTDbrtwNKBfFEB754-14">
          <mxGeometry x="10" y="65" width="130" height="50" as="geometry" />
        </mxCell>
        <mxCell id="yyR396pkZPAoqzIFuEps-11" value="«CSCI»&lt;br&gt;&lt;br&gt;Session Admin SW" style="html=1;shadow=1;strokeColor=#82b366;fillColor=#d5e8d4;gradientColor=#97d077;gradientDirection=south;" parent="s6RQTDbrtwNKBfFEB754-11" vertex="1">
          <mxGeometry width="130" height="50" as="geometry" />
        </mxCell>
        <mxCell id="s6RQTDbrtwNKBfFEB754-7" value="" style="shape=image;html=1;verticalAlign=top;verticalLabelPosition=bottom;labelBackgroundColor=#ffffff;imageAspect=0;aspect=fixed;image=https://cdn3.iconfinder.com/data/icons/user-interface-169/32/dicument-128.png;strokeColor=#009900;strokeWidth=1;fillColor=#0A0000;imageBackground=none;imageBorder=none;" vertex="1" parent="s6RQTDbrtwNKBfFEB754-11">
          <mxGeometry x="109" y="2" width="20" height="20" as="geometry" />
        </mxCell>
        <mxCell id="s6RQTDbrtwNKBfFEB754-18" value="" style="group" vertex="1" connectable="0" parent="1">
          <mxGeometry x="460" y="50" width="170" height="240" as="geometry" />
        </mxCell>
        <mxCell id="yyR396pkZPAoqzIFuEps-1" value="" style="verticalAlign=top;align=left;spacingTop=8;spacingLeft=2;spacingRight=12;shape=cube;size=20;direction=south;fontStyle=4;html=1;fillColor=#E5EEFC;strokeColor=#0A0000;gradientColor=#7ea6e0;gradientDirection=east;shadow=1;" parent="s6RQTDbrtwNKBfFEB754-18" vertex="1">
          <mxGeometry width="170" height="240" as="geometry" />
        </mxCell>
        <mxCell id="yyR396pkZPAoqzIFuEps-2" value="&lt;b&gt;Session Central Server&lt;/b&gt;" style="text;html=1;align=center;verticalAlign=middle;resizable=0;points=[];autosize=1;strokeColor=none;fillColor=none;" parent="s6RQTDbrtwNKBfFEB754-18" vertex="1">
          <mxGeometry y="30" width="150" height="20" as="geometry" />
        </mxCell>
        <mxCell id="yyR396pkZPAoqzIFuEps-3" value="«CSCI»&lt;br&gt;&lt;br&gt;Session User DB SW" style="html=1;shadow=1;strokeColor=#82b366;fillColor=#d5e8d4;gradientColor=#97d077;gradientDirection=south;" parent="s6RQTDbrtwNKBfFEB754-18" vertex="1">
          <mxGeometry x="10" y="60" width="130" height="50" as="geometry" />
        </mxCell>
        <mxCell id="yyR396pkZPAoqzIFuEps-9" value="«CSCI»&lt;br&gt;&lt;br&gt;Session Project DB SW" style="html=1;shadow=1;strokeColor=#82b366;fillColor=#d5e8d4;gradientColor=#97d077;gradientDirection=south;" parent="s6RQTDbrtwNKBfFEB754-18" vertex="1">
          <mxGeometry x="10" y="120" width="130" height="50" as="geometry" />
        </mxCell>
        <mxCell id="yyR396pkZPAoqzIFuEps-10" value="«CSCI»&lt;br&gt;&lt;br&gt;Services DB SW" style="html=1;shadow=1;strokeColor=#82b366;fillColor=#d5e8d4;gradientColor=#97d077;gradientDirection=south;" parent="s6RQTDbrtwNKBfFEB754-18" vertex="1">
          <mxGeometry x="10" y="180" width="130" height="50" as="geometry" />
        </mxCell>
        <mxCell id="s6RQTDbrtwNKBfFEB754-15" value="" style="shape=image;html=1;verticalAlign=top;verticalLabelPosition=bottom;labelBackgroundColor=#ffffff;imageAspect=0;aspect=fixed;image=https://cdn3.iconfinder.com/data/icons/user-interface-169/32/dicument-128.png;strokeColor=#009900;strokeWidth=1;fillColor=#0A0000;imageBackground=none;imageBorder=none;" vertex="1" parent="s6RQTDbrtwNKBfFEB754-18">
          <mxGeometry x="120" y="182" width="20" height="20" as="geometry" />
        </mxCell>
        <mxCell id="s6RQTDbrtwNKBfFEB754-16" value="" style="shape=image;html=1;verticalAlign=top;verticalLabelPosition=bottom;labelBackgroundColor=#ffffff;imageAspect=0;aspect=fixed;image=https://cdn3.iconfinder.com/data/icons/user-interface-169/32/dicument-128.png;strokeColor=#009900;strokeWidth=1;fillColor=#0A0000;imageBackground=none;imageBorder=none;" vertex="1" parent="s6RQTDbrtwNKBfFEB754-18">
          <mxGeometry x="120" y="121" width="20" height="20" as="geometry" />
        </mxCell>
        <mxCell id="s6RQTDbrtwNKBfFEB754-17" value="" style="shape=image;html=1;verticalAlign=top;verticalLabelPosition=bottom;labelBackgroundColor=#ffffff;imageAspect=0;aspect=fixed;image=https://cdn3.iconfinder.com/data/icons/user-interface-169/32/dicument-128.png;strokeColor=#009900;strokeWidth=1;fillColor=#0A0000;imageBackground=none;imageBorder=none;" vertex="1" parent="s6RQTDbrtwNKBfFEB754-18">
          <mxGeometry x="121" y="61" width="20" height="20" as="geometry" />
        </mxCell>
      </root>
    </mxGraphModel>
  </diagram>
</mxfile>
